# xmcd CD database file
#
# Track frame offsets:
#	150
#	23136
#	38654
#	58833
#	80787
#	106711
#	126356
#	146029
#	164145
#	195124
#	209974
#
# Disc length: 3025 seconds
#
# Revision: 0
# Processed by: cddbd v1.5.1PL0 Copyright (c) Steve Scherf et al.
# Submitted via: CDex 1.51
#
DISCID=a20bcf0b
DTITLE=Billy Currie - Still Movement
DYEAR=2004
DGENRE=Electronic
TTITLE0=Waving Hands in Clouds
TTITLE1=Simultaneity
TTITLE2=Afterglow
TTITLE3=Apocrypha
TTITLE4=The Waves Look Sleepy
TTITLE5=Standing Still
TTITLE6=Highfalutin
TTITLE7=The Other World
TTITLE8=Stately
TTITLE9=Deflect Downward
TTITLE10=Step Forward To Seven Stars
EXTD=YEAR: 2004
EXTT0=
EXTT1=
EXTT2=
EXTT3=
EXTT4=
EXTT5=
EXTT6=
EXTT7=
EXTT8=
EXTT9=
EXTT10=
PLAYORDER=
